M48
INCH
T01C0.0150
T02C0.0400
T03C0.0300
%
T01
X+006160Y+009143
X+003996Y+009139
X+008035Y+009952
X+012148Y+000673
X+006398Y+002269
X+012821Y+008962
X+004025Y+010340
X+005171Y+005795
X+006800Y+009973
X+003543Y+001968
X+003523Y+000538
X+007273Y+002624
X+006614Y+001757
X+007536Y+001889
X+007743Y+005317
X+008534Y+001211
X+008158Y+001738
T02
X+008133Y+012992
X+007133Y+012992
X+006133Y+012992
X+005133Y+012992
X+004133Y+012992
X+003133Y+012992
X+002133Y+012992
X+001133Y+012992
X+008858Y+010433
X+008858Y+009433
X+008858Y+008433
X+010251Y+012992
X+009251Y+012992
X+001000Y+010000
X+001000Y+009000
X+006500Y+003500
X+005500Y+003500
X+004500Y+003500
X+000803Y+001496
X+009803Y+001496
X+001350Y+011500
X+010350Y+011500
X+003543Y-000393
X+004543Y-000393
X+005543Y-000393
X+006543Y-000393
X+007543Y-000393
X+008543Y-000393
T03
X+002000Y+005000
X+002000Y+007000
X+008661Y+004921
X+008661Y+005511
X+008661Y+003149
X+008661Y+003740
M30
