M48
INCH
T01C0.0400
T02C0.0300
%
T01
X+001500Y+025100
X+001500Y+024100
X+001500Y+023100
X+001500Y+022100
X+001500Y+021100
X+001500Y+020100
X+001500Y+019100
X+001500Y+018100
X+001500Y+017100
X+001500Y+016100
X+001500Y+015100
X+001500Y+014100
X+001500Y+013100
X+001500Y+012100
X+001500Y+011100
X+001500Y+010100
X+001500Y+009100
X+001500Y+008100
X+007480Y+025094
X+007480Y+024094
X+007480Y+023094
X+007480Y+022094
X+007480Y+021094
X+007480Y+020094
X+007480Y+019094
X+007480Y+018094
X+007480Y+017094
X+007480Y+016094
X+007480Y+015094
X+007480Y+014094
X+007480Y+013094
X+007480Y+012094
X+007480Y+011094
X+007480Y+010094
X+007480Y+009094
X+007480Y+008094
X+001377Y+000984
X+002377Y+000984
X+003377Y+000984
X+004377Y+000984
X+005377Y+000984
X+006377Y+000984
X+007377Y+000984
X+008377Y+000984
X+014370Y+001771
X+014370Y+000771
X+012614Y+001574
X+011614Y+001574
X+010614Y+001574
X+009500Y+024546
X+009500Y+015546
X+009448Y+013976
X+009448Y+004976
X+012976Y+005708
X+013976Y+005708
X+014976Y+005708
T02
X+010629Y+005314
X+011220Y+005314
M30
